<?xml version="1.0" encoding="UTF-8" standalone="no"?><!DOCTYPE svg PUBLIC "-//W3C//DTD SVG 1.1//EN" "http://www.w3.org/Graphics/SVG/1.1/DTD/svg11.dtd"><svg width="100%" height="100%" viewBox="0 0 2134 2134" version="1.1" xmlns="http://www.w3.org/2000/svg" xmlns:xlink="http://www.w3.org/1999/xlink" xml:space="preserve" xmlns:serif="http://www.serif.com/" style="fill-rule:evenodd;clip-rule:evenodd;stroke-linecap:round;stroke-linejoin:round;stroke-miterlimit:1.5;"><g><path d="M1473.165,1280.697c-325.952,0 -590.585,281.353 -590.585,627.901l-728.734,1.818c-46.506,0 -84.264,-37.807 -84.264,-84.375l0,-1518.75c0,-46.568 37.757,-84.375 84.264,-84.375l1518.857,-0c46.506,0 84.264,37.807 84.264,84.375l-1.96,489.03c0,0 0.44,187.886 -0.611,152.501c-3.237,-108.919 -141.736,-230.625 -281.231,-230.625c-155.215,0 -281.231,126.024 -281.231,281.25c0,155.226 126.015,281.25 281.231,281.25Z" style="fill:#fff0af;stroke:#ffe07d;stroke-width:83.33px;"/><ellipse cx="1473.165" cy="999.447" rx="281.231" ry="281.25" style="fill:none;stroke:#ffe07d;stroke-width:83.33px;"/><path d="M2063.75,1910.417l-169.045,-184.015m0,0l-30.424,-33.118l30.424,-33.118m0,0l169.045,-184.015" style="fill:#fff0af;stroke:#ffe07d;stroke-width:83.33px;"/><path d="M1334.034,1907.56l291.359,-0.776" style="fill:none;stroke:#ffe07d;stroke-width:83.33px;"/></g></svg>