<?xml version="1.0" encoding="UTF-8" standalone="no"?>
<!DOCTYPE svg PUBLIC "-//W3C//DTD SVG 1.1//EN" "http://www.w3.org/Graphics/SVG/1.1/DTD/svg11.dtd">
<svg width="100%" height="100%" viewBox="0 0 512 512" version="1.1" xmlns="http://www.w3.org/2000/svg" xmlns:xlink="http://www.w3.org/1999/xlink" xml:space="preserve" xmlns:serif="http://www.serif.com/" style="fill-rule:evenodd;clip-rule:evenodd;stroke-linejoin:round;stroke-miterlimit:2;">
    <g id="Code" transform="matrix(1,0,0,1,-11.211679,-68.91836)">
        <g transform="matrix(0.1,0,0,-0.1,-29.89781,511)">
            <path d="M1703,2317C1506,2120 1470,2080 1470,2055C1470,2030 1506,1990 1703,1793C1933,1561 1935,1559 1974,1562C2024,1566 2056,1604 2046,1647C2041,1665 1972,1742 1850,1865L1661,2055L1850,2245C1972,2368 2041,2445 2046,2463C2056,2506 2024,2544 1974,2548C1935,2551 1933,2549 1703,2317Z" style="fill-rule:nonzero;stroke:black;stroke-width:10px;"/>
        </g>
        <g transform="matrix(0.1,0,0,-0.1,-29.89781,511)">
            <path d="M2623,2528C2612,2515 2535,2313 2451,2070C2300,1640 2299,1635 2314,1603C2340,1549 2417,1545 2444,1598C2468,1646 2750,2456 2750,2479C2750,2510 2707,2550 2672,2550C2655,2550 2635,2541 2623,2528Z" style="fill-rule:nonzero;stroke:black;stroke-width:10px;"/>
        </g>
        <g transform="matrix(0.1,0,0,-0.1,-29.89781,511)">
            <path d="M3091,2524C3049,2471 3060,2453 3279,2235L3460,2055L3271,1865C3148,1742 3079,1665 3074,1647C3064,1604 3096,1566 3146,1562C3185,1559 3187,1561 3418,1793C3614,1990 3650,2030 3650,2055C3650,2080 3614,2120 3418,2317C3198,2537 3184,2550 3149,2550C3120,2550 3106,2544 3091,2524Z" style="fill-rule:nonzero;stroke:black;stroke-width:10px;"/>
        </g>
    </g>
    <g id="Notes" transform="matrix(1.046993,0,0,1.064427,196.37759,27.762622)">
        <path d="M0,0C1.237,-0.014 1.237,-0.014 2.499,-0.029C3.386,-0.033 4.274,-0.038 5.188,-0.042C6.104,-0.048 7.02,-0.053 7.964,-0.059C9.903,-0.069 11.841,-0.075 13.779,-0.079C16.74,-0.089 19.7,-0.12 22.661,-0.151C24.545,-0.158 26.429,-0.163 28.313,-0.167C29.196,-0.179 30.08,-0.192 30.99,-0.204C36.838,-0.183 40.116,0.789 44.633,4.661C47.8,8.462 47.01,13.33 46.981,17.985C46.979,19.277 46.979,19.277 46.977,20.596C46.971,23.347 46.959,26.098 46.946,28.849C46.941,30.714 46.936,32.579 46.932,34.444C46.921,39.017 46.904,43.589 46.883,48.161C48.084,48.148 49.286,48.134 50.523,48.121C61.88,47.999 73.237,47.909 84.594,47.85C90.433,47.819 96.27,47.777 102.108,47.708C107.749,47.643 113.39,47.607 119.031,47.592C121.176,47.581 123.321,47.559 125.465,47.527C149,47.184 149,47.184 158.85,55.902C160.462,57.554 161.664,59.203 162.883,61.161C163.25,61.749 163.616,62.337 163.994,62.943C167.801,70.245 167.334,77.721 167.133,85.724C167.113,87.128 167.095,88.532 167.079,89.937C167.032,93.345 166.966,96.753 166.883,100.161C167.553,100.25 168.222,100.338 168.912,100.429C179.361,101.919 189.653,104.091 199.968,106.31C203.072,106.974 206.18,107.619 209.288,108.265C211.292,108.694 213.297,109.124 215.301,109.556C216.215,109.742 217.129,109.929 218.07,110.121C229.918,112.73 238.405,117.675 245.043,127.958C251.433,141.39 245.176,160.265 242.18,173.806C241.672,176.161 241.166,178.517 240.66,180.873C239.431,186.587 238.188,192.298 236.937,198.008C235.325,205.376 233.734,212.748 232.143,220.12C231.544,222.892 230.946,225.663 230.347,228.434C230.197,229.128 230.047,229.822 229.893,230.537C228.813,235.535 227.729,240.532 226.645,245.528C222.388,265.139 218.191,284.762 214.034,304.394C213.07,308.948 212.104,313.502 211.138,318.055C210.981,318.798 210.823,319.541 210.66,320.307C210.028,323.286 209.396,326.264 208.764,329.243C207.063,337.261 205.364,345.28 203.67,353.3C202.359,359.512 201.041,365.722 199.717,371.931C199.041,375.104 198.368,378.277 197.7,381.452C196.972,384.91 196.235,388.367 195.495,391.823C195.185,393.314 195.185,393.314 194.869,394.835C192.159,407.365 188.845,417.811 177.696,425.099C163.408,433.683 142.128,426.09 127.286,422.81C124.651,422.24 122.015,421.672 119.38,421.105C113.77,419.897 108.163,418.677 102.558,417.448C93.768,415.522 84.974,413.616 76.179,411.714C73.205,411.07 70.231,410.427 67.257,409.783C66.519,409.623 65.78,409.463 65.02,409.298C59.773,408.162 54.526,407.022 49.279,405.881C31.31,401.973 13.331,398.117 -4.664,394.325C-8.32,393.555 -11.976,392.783 -15.632,392.01C-29.26,389.131 -29.26,389.131 -42.891,386.269C-48.079,385.183 -53.265,384.088 -58.449,382.986C-60.325,382.589 -62.201,382.195 -64.078,381.806C-91.087,376.197 -91.087,376.197 -98.691,364.802C-101.7,359.25 -102.813,354.445 -103.117,348.161C-104.189,348.285 -105.262,348.409 -106.367,348.536C-113.295,348.524 -119.854,344.891 -125.078,340.521C-131.796,333.223 -133.714,325.107 -133.638,315.441C-133.646,314.396 -133.653,313.352 -133.661,312.275C-133.682,308.793 -133.674,305.312 -133.666,301.83C-133.675,299.326 -133.685,296.822 -133.697,294.318C-133.721,288.233 -133.726,282.148 -133.721,276.063C-133.718,271.114 -133.721,266.165 -133.73,261.216C-133.731,260.51 -133.732,259.804 -133.733,259.077C-133.736,257.643 -133.738,256.209 -133.741,254.775C-133.762,241.34 -133.758,227.906 -133.746,214.471C-133.736,202.2 -133.758,189.929 -133.796,177.658C-133.835,165.037 -133.851,152.417 -133.844,139.797C-133.84,132.719 -133.845,125.642 -133.873,118.565C-133.9,111.907 -133.895,105.25 -133.869,98.593C-133.864,96.155 -133.869,93.717 -133.886,91.279C-134.044,66.208 -134.044,66.208 -125.493,56.275C-118.561,49.651 -110.44,47.555 -101.099,47.707C-99.663,47.706 -99.663,47.706 -98.198,47.705C-95.065,47.708 -91.933,47.739 -88.8,47.771C-86.616,47.778 -84.432,47.784 -82.247,47.788C-76.521,47.803 -70.796,47.842 -65.07,47.886C-59.218,47.928 -53.365,47.946 -47.513,47.966C-36.048,48.009 -24.582,48.077 -13.117,48.161C-13.148,46.986 -13.18,45.811 -13.212,44.6C-13.321,40.219 -13.39,35.838 -13.446,31.456C-13.476,29.563 -13.517,27.671 -13.569,25.779C-13.643,23.051 -13.676,20.324 -13.703,17.595C-13.734,16.756 -13.765,15.917 -13.796,15.053C-13.8,9.446 -12.533,6.558 -8.702,2.458C-5.98,0.231 -3.376,0.032 0,0ZM-1.117,14.161C-1.424,16.939 -1.424,16.939 -1.375,20.231C-1.382,21.506 -1.388,22.781 -1.395,24.094C-1.391,25.492 -1.387,26.889 -1.382,28.286C-1.384,29.713 -1.386,31.141 -1.388,32.568C-1.391,35.561 -1.387,38.553 -1.377,41.546C-1.366,45.386 -1.373,49.226 -1.385,53.067C-1.392,56.014 -1.39,58.962 -1.384,61.91C-1.383,63.326 -1.385,64.742 -1.389,66.158C-1.394,68.136 -1.385,70.113 -1.375,72.091C-1.374,73.217 -1.372,74.344 -1.371,75.504C-1.386,78.316 -1.386,78.316 0.883,80.161C4.155,80.474 4.155,80.474 8.008,80.427C9.062,80.43 9.062,80.43 10.138,80.433C11.624,80.434 13.11,80.43 14.596,80.422C16.874,80.411 19.152,80.422 21.43,80.435C22.873,80.433 24.316,80.431 25.758,80.427C27.076,80.425 28.393,80.422 29.75,80.42C32.983,80.493 32.983,80.493 34.883,78.161C35.191,75.383 35.191,75.383 35.142,72.091C35.148,70.816 35.155,69.541 35.161,68.228C35.158,66.831 35.154,65.433 35.149,64.036C35.15,62.609 35.152,61.182 35.155,59.754C35.158,56.762 35.153,53.769 35.144,50.776C35.133,46.936 35.139,43.096 35.151,39.255C35.158,36.308 35.156,33.36 35.151,30.413C35.15,28.996 35.151,27.58 35.156,26.164C35.161,24.186 35.152,22.209 35.142,20.231C35.14,19.105 35.139,17.978 35.137,16.818C35.153,14.006 35.153,14.006 32.883,12.161C29.611,11.848 29.611,11.848 25.758,11.896C24.704,11.893 24.704,11.893 23.629,11.89C22.143,11.888 20.657,11.892 19.17,11.9C16.892,11.911 14.615,11.9 12.336,11.888C10.894,11.889 9.451,11.892 8.008,11.896C6.691,11.898 5.373,11.9 4.016,11.902C0.784,11.829 0.784,11.829 -1.117,14.161ZM-116.519,66.209C-121.484,72.275 -121.553,80.923 -121.498,88.408C-121.502,89.389 -121.507,90.371 -121.512,91.382C-121.524,94.645 -121.514,97.907 -121.505,101.169C-121.509,103.519 -121.514,105.868 -121.521,108.218C-121.534,114.582 -121.529,120.945 -121.52,127.309C-121.513,133.301 -121.518,139.292 -121.522,145.284C-121.531,157.875 -121.521,170.465 -121.505,183.055C-121.492,193.842 -121.494,204.63 -121.508,215.417C-121.524,227.964 -121.53,240.512 -121.521,253.059C-121.516,259.694 -121.516,266.328 -121.526,272.962C-121.534,279.201 -121.528,285.439 -121.511,291.677C-121.507,293.962 -121.508,296.248 -121.515,298.534C-121.523,301.661 -121.513,304.787 -121.498,307.915C-121.504,308.812 -121.511,309.71 -121.518,310.635C-121.457,317.281 -120.874,324.793 -116.519,330.113C-110.068,336.395 -101.621,336.457 -93.104,336.422C-92.123,336.426 -91.143,336.429 -90.133,336.433C-86.862,336.444 -83.591,336.44 -80.32,336.436C-77.969,336.44 -75.618,336.445 -73.267,336.451C-66.891,336.465 -60.515,336.465 -54.139,336.463C-48.139,336.462 -42.139,336.468 -36.14,336.473C-23.531,336.484 -10.923,336.482 1.686,336.476C13.209,336.471 24.732,336.482 36.255,336.501C48.102,336.52 59.948,336.528 71.794,336.525C78.439,336.523 85.084,336.526 91.729,336.539C97.978,336.552 104.227,336.55 110.475,336.537C112.766,336.535 115.057,336.537 117.348,336.546C120.48,336.556 123.612,336.548 126.744,336.535C127.646,336.543 128.548,336.55 129.477,336.558C136.852,336.495 142.943,334.958 149.258,331.099C154.997,324.676 155.326,316.193 155.264,307.915C155.269,306.933 155.274,305.951 155.278,304.94C155.29,301.678 155.281,298.416 155.271,295.153C155.276,292.804 155.281,290.454 155.287,288.104C155.301,281.741 155.296,275.377 155.286,269.014C155.279,263.022 155.285,257.03 155.289,251.038C155.298,238.448 155.288,225.857 155.272,213.267C155.258,202.48 155.261,191.693 155.274,180.905C155.29,168.358 155.297,155.811 155.288,143.263C155.283,136.629 155.282,129.994 155.292,123.36C155.301,117.122 155.295,110.884 155.278,104.646C155.274,102.36 155.275,100.074 155.281,97.789C155.29,94.662 155.279,91.535 155.264,88.408C155.271,87.51 155.278,86.612 155.285,85.687C155.223,79.041 154.641,71.529 150.285,66.209C144.059,60.146 135.964,59.861 127.713,59.934C126.834,59.934 125.955,59.933 125.05,59.933C122.171,59.935 119.293,59.95 116.415,59.966C114.408,59.97 112.402,59.972 110.395,59.974C105.135,59.982 99.874,60.002 94.613,60.024C89.237,60.044 83.861,60.053 78.485,60.063C67.951,60.085 57.417,60.119 46.883,60.161C46.869,61.159 46.869,61.159 46.855,62.177C46.801,65.214 46.717,68.25 46.633,71.286C46.619,72.333 46.605,73.38 46.59,74.458C46.396,80.587 46.123,84.576 41.883,89.161C39.052,90.871 36.943,91.415 33.653,91.436C32.829,91.445 32.004,91.455 31.155,91.465C30.272,91.464 29.39,91.463 28.481,91.462C27.566,91.466 26.652,91.47 25.709,91.475C23.777,91.481 21.844,91.481 19.912,91.477C16.96,91.474 14.009,91.497 11.057,91.522C9.178,91.525 7.298,91.525 5.418,91.524C4.538,91.534 3.658,91.543 2.751,91.552C-2.019,91.516 -5.29,91.322 -9.117,88.161C-12.019,84.975 -12.515,82.792 -12.628,78.521C-12.664,77.451 -12.699,76.381 -12.736,75.278C-12.758,74.167 -12.781,73.056 -12.804,71.911C-12.838,70.784 -12.873,69.658 -12.908,68.497C-12.99,65.719 -13.059,62.94 -13.117,60.161C-24.713,60.115 -36.309,60.079 -47.906,60.058C-53.291,60.047 -58.676,60.033 -64.061,60.01C-69.261,59.988 -74.461,59.977 -79.661,59.971C-81.642,59.968 -83.623,59.96 -85.603,59.95C-88.384,59.935 -91.165,59.933 -93.947,59.934C-94.76,59.927 -95.572,59.92 -96.41,59.912C-103.884,59.939 -110.961,60.796 -116.519,66.209ZM166.883,113.161C166.884,114.248 166.884,115.334 166.884,116.454C166.892,142.921 166.866,169.388 166.803,195.855C166.774,208.654 166.755,221.453 166.763,234.252C166.77,245.411 166.756,256.569 166.717,267.728C166.697,273.634 166.687,279.54 166.703,285.446C166.717,291.011 166.703,296.575 166.668,302.14C166.66,304.177 166.663,306.213 166.676,308.25C166.8,328.893 166.8,328.893 159.883,338.161C152.607,345.283 145.069,347.614 135.12,347.56C134.154,347.567 133.189,347.573 132.194,347.58C128.968,347.599 125.742,347.596 122.516,347.594C120.2,347.603 117.884,347.613 115.568,347.624C109.285,347.652 103.003,347.661 96.72,347.667C90.153,347.677 83.585,347.703 77.017,347.727C65.996,347.766 54.974,347.794 43.952,347.815C32.602,347.836 21.252,347.863 9.902,347.899C8.851,347.902 8.851,347.902 7.78,347.905C4.268,347.916 0.755,347.928 -2.757,347.939C-31.877,348.032 -60.997,348.103 -90.117,348.161C-89.269,354.25 -87.465,358.011 -82.867,362.221C-79.825,364.367 -77.467,365.178 -73.862,366.077C-72.901,366.319 -72.901,366.319 -71.921,366.565C-61.408,369.146 -50.786,371.285 -40.191,373.501C-37.72,374.021 -35.249,374.541 -32.779,375.062C-26.841,376.313 -20.903,377.56 -14.964,378.806C-2.491,381.423 9.981,384.047 22.452,386.674C24.568,387.119 26.684,387.565 28.8,388.01C47.174,391.878 65.537,395.796 83.885,399.786C87.346,400.538 90.808,401.289 94.269,402.039C103.913,404.131 113.556,406.226 123.193,408.348C127.086,409.203 130.981,410.048 134.877,410.89C136.656,411.276 138.433,411.668 140.209,412.063C155.915,416.142 155.915,416.142 171.321,413.536C177.74,407.586 179.812,403.339 181.511,394.831C181.732,393.797 181.954,392.764 182.182,391.698C182.916,388.253 183.624,384.803 184.333,381.353C184.852,378.89 185.373,376.429 185.895,373.967C187.004,368.73 188.104,363.491 189.194,358.25C190.851,350.294 192.541,342.346 194.237,334.399C194.804,331.743 195.371,329.086 195.937,326.43C196.078,325.769 196.219,325.107 196.364,324.426C197.962,316.929 199.55,309.43 201.136,301.931C201.281,301.245 201.426,300.559 201.576,299.852C202.465,295.648 203.354,291.443 204.243,287.239C206.701,275.614 209.159,263.99 211.62,252.366C211.923,250.938 212.225,249.509 212.528,248.08C216.128,231.07 219.749,214.064 223.461,197.078C224.022,194.507 224.582,191.936 225.142,189.364C226.592,182.705 228.045,176.046 229.529,169.393C230.224,166.266 230.904,163.135 231.586,160.005C231.826,158.955 232.065,157.905 232.311,156.823C234.002,148.972 235.789,140.114 232.196,132.661C224.612,124.463 215.407,122.892 204.793,120.681C203.768,120.463 202.742,120.245 201.685,120.021C199.535,119.566 197.385,119.113 195.234,118.662C191.93,117.97 188.628,117.27 185.327,116.569C183.232,116.127 181.138,115.685 179.043,115.243C178.054,115.034 177.064,114.825 176.045,114.609C174.677,114.323 174.677,114.323 173.282,114.031C172.479,113.863 171.675,113.694 170.848,113.521C168.888,113.101 168.888,113.101 166.883,113.161Z" style="fill-rule:nonzero;stroke:black;stroke-width:7.1px;"/>
    </g>
</svg>
