<?xml version="1.0" encoding="UTF-8" standalone="no"?>
<!DOCTYPE svg PUBLIC "-//W3C//DTD SVG 1.1//EN" "http://www.w3.org/Graphics/SVG/1.1/DTD/svg11.dtd">
<svg width="100%" height="100%" viewBox="0 0 497 406" version="1.1" xmlns="http://www.w3.org/2000/svg" xmlns:xlink="http://www.w3.org/1999/xlink" xml:space="preserve" xmlns:serif="http://www.serif.com/" style="fill-rule:evenodd;clip-rule:evenodd;stroke-linecap:round;stroke-linejoin:round;stroke-miterlimit:1.5;">
    <g transform="matrix(1,0,0,1,-7.848982,-58.054156)">
        <g transform="matrix(1,0,0,1,-8.469532,0.097245)">
            <g transform="matrix(0.965926,-0.258819,0.258819,0.965926,-81.056782,72.906135)">
                <g transform="matrix(0.927418,0,0,0.917208,34.937326,21.690627)">
                    <path d="M262.164,448.785L122.463,449.138C113.547,449.138 106.309,441.81 106.309,432.784L106.309,138.412C106.309,129.386 113.547,122.058 122.463,122.058L413.634,122.058C422.55,122.058 429.788,129.386 429.788,138.412L429.295,196.975" style="fill:none;stroke:black;stroke-width:21.68px;"/>
                </g>
                <g transform="matrix(1,0,0,1,24.536431,0)">
                    <path d="M463.536,433.643L433.482,400.93M433.482,400.93L428.073,395.042L433.482,389.154M433.482,389.154L463.536,356.44" style="fill:none;stroke:black;stroke-width:20px;"/>
                </g>
                <g transform="matrix(0.786919,0.761728,-0.860502,0.704027,352.089437,-171.035209)">
                    <path d="M433.482,389.154L463.536,356.44" style="fill:none;stroke:black;stroke-width:19.27px;"/>
                </g>
                <g transform="matrix(1.76904,0,0,1.540916,-343.649451,-99.00468)">
                    <ellipse cx="410.8" cy="240.57" rx="28.264" ry="32.448" style="fill:none;stroke:black;stroke-width:12.06px;"/>
                </g>
                <g transform="matrix(3.714984,0,0,3.44015,-1143.043996,-394.276473)">
                    <path d="M382.536,240.57C382.536,222.661 395.201,208.122 410.8,208.122" style="fill:none;stroke:black;stroke-width:5.59px;"/>
                </g>
            </g>
            <g transform="matrix(1.117046,0,-0,1.109772,-66.926191,34.56532)">
                <path d="M194.481,349.863L96.903,349.863C89.491,349.863 83.474,343.807 83.474,336.347L83.474,93.054C83.474,85.594 89.491,79.537 96.903,79.537L288.479,79.537" style="fill:none;stroke:black;stroke-width:17.96px;"/>
            </g>
            <path d="M206.809,143.706C204.566,144.345 206.809,143.706 206.809,143.706L184.293,149.05C184.293,149.05 176.552,118.316 174.296,114.573L173.652,112.19C170.835,100.301 172.417,87.767 178.847,77.419C194.68,55.531 221.175,52.23 243.39,66.885C255.282,76.469 259.134,91.276 262.894,105.396C262.894,105.396 273.487,146.904 276.201,155.788C281.145,172.644 283.826,186.602 275.823,203.128C269.779,213.077 260.927,219.072 249.671,222.076C234.514,223.415 222.922,222.227 210.909,212.407C201.547,203.659 196.331,192.561 195.185,179.74C195.508,175.571 196.57,173.756 199.669,170.947C204.241,169.335 206.703,169.553 211.322,170.947C215.49,174.097 216.365,177.605 217.769,182.5C220.175,190.031 222.574,195.697 229.639,199.953C234.869,202.065 240.167,201.795 245.704,201.1C252.143,198.026 255.548,194.194 258.927,187.99C260.384,182.094 260.101,178.035 258.447,172.222L257.205,167.764L255.869,163.163L254.581,158.577C253.401,154.392 235.856,96.286 235.856,96.286C235.856,96.286 229.223,83.51 223.081,82.31C216.94,81.111 206.73,80.607 199.008,89.09C195.195,94.55 195.126,98.885 195.454,105.396L198.099,114.573C198.099,114.573 201.372,128.604 206.809,143.706Z"/>
        </g>
    </g>
</svg>
