<?xml version="1.0" encoding="UTF-8"?>
<svg version="1.1" xmlns="http://www.w3.org/2000/svg" width="512" height="512">
<path d="M0 0 C13.76659093 11.0340682 23.81288827 26.12673993 26.35839844 43.78369141 C26.66942883 49.45051352 26.53975875 55.11450242 26.35839844 60.78369141 C27.54046875 61.14591797 28.72253906 61.50814453 29.94042969 61.88134766 C36.11008309 63.9434905 42.00383634 66.61846766 47.93386841 69.27529907 C51.68837553 70.95679008 55.44952592 72.6233226 59.20996094 74.29150391 C60.01826859 74.65043228 60.82657623 75.00936066 61.65937805 75.37916565 C71.72175994 79.8417261 81.82257835 84.21574429 91.92089844 88.59619141 C106.91521767 95.10366271 121.89576311 101.64119377 136.85839844 108.22119141 C148.38804921 113.29092252 159.92354484 118.34567779 171.48339844 123.34619141 C173.84277476 124.36702168 176.20214973 125.38785507 178.56152344 126.40869141 C179.16141083 126.66824615 179.76129822 126.9278009 180.37936401 127.19522095 C188.45625866 130.69058862 196.53031869 134.1924573 204.60101318 137.70211792 C206.33589113 138.45612148 208.07111279 139.20933475 209.80670166 139.96170044 C212.23890516 141.01617197 214.66987268 142.07344627 217.10058594 143.13134766 C217.81704285 143.44124634 218.53349976 143.75114502 219.27166748 144.07043457 C222.78765201 145.60410683 226.28387491 147.18004215 229.74951172 148.82446289 C230.39429474 149.12795151 231.03907776 149.43144012 231.70339966 149.74412537 C233.35839844 150.78369141 233.35839844 150.78369141 235.35839844 153.78369141 C235.8206294 159.64332842 235.06594257 163.43280554 232.63183594 168.86572266 C232.33698807 169.53589417 232.0421402 170.20606567 231.73835754 170.89654541 C231.09211629 172.36052398 230.43909778 173.82152543 229.78012085 175.27981567 C228.70241888 177.66474855 227.6422963 180.0568508 226.58618164 182.45141602 C225.43119467 185.06889964 224.27479128 187.68569115 223.11305237 190.30018616 C218.64164812 200.36355905 214.29435767 210.47983381 209.94415283 220.59603882 C207.59011248 226.06785451 205.22982289 231.53697335 202.87011719 237.00634766 C201.9344066 239.17578084 200.99869695 241.34521443 200.06298828 243.51464844 C195.99759104 252.93887159 191.92805764 262.36130812 187.85839844 271.78369141 C180.08911394 289.77199414 172.32638461 307.76311895 164.56738281 325.75585938 C160.12748486 336.05105572 155.68467067 346.34496974 151.23339844 356.63525391 C150.41054547 358.53824105 149.58770997 360.44123575 148.76489258 362.34423828 C147.56989378 365.10798358 146.37448697 367.87154834 145.17770386 370.63452148 C141.13313624 379.97209906 137.11753936 389.31916983 133.20605469 398.71337891 C132.55699987 400.26661566 131.90791222 401.81983869 131.25878906 403.37304688 C130.06776711 406.22432604 128.88982223 409.08050973 127.71972656 411.94042969 C127.1947794 413.20086838 126.66941513 414.46113346 126.14355469 415.72119141 C125.69890869 416.80271484 125.2542627 417.88423828 124.79614258 418.99853516 C123.29326088 421.90987399 121.90147016 423.72824899 119.35839844 425.78369141 C112.05431295 426.89500761 106.61151944 424.14540333 100.04589844 421.15869141 C98.25607629 420.3684406 96.46620894 419.57829048 94.67555237 418.78993225 C93.31780333 418.19104694 91.96093637 417.59015884 90.60484314 416.98753357 C80.37497627 412.44258644 70.08419583 408.03711727 59.80361938 403.60845947 C56.31448312 402.10420374 52.82685093 400.59651037 49.33959961 399.08789062 C47.1674887 398.14923226 44.9953699 397.21059213 42.82324219 396.27197266 C41.81191223 395.83392807 40.80058228 395.39588348 39.75860596 394.94456482 C38.82723816 394.54254349 37.89587036 394.14052216 36.9362793 393.72631836 C35.71393837 393.19769951 35.71393837 393.19769951 34.46690369 392.65840149 C32.79147571 391.96335283 31.07919371 391.35728983 29.35839844 390.78369141 C28.62812439 391.51840668 27.89785034 392.25312195 27.14544678 393.01010132 C20.26477957 399.93130078 13.37884592 406.84722172 6.48771286 413.75800133 C2.94503212 417.31112205 -0.59576296 420.86608041 -4.13232422 424.42529297 C-7.54495564 427.85964486 -10.96244037 431.28909723 -14.38335419 434.71519852 C-15.68804948 436.02359097 -16.99098231 437.33374334 -18.29212189 438.64567184 C-20.11395031 440.48200437 -21.94192806 442.31199626 -23.77148438 444.140625 C-24.57745308 444.95737953 -24.57745308 444.95737953 -25.39970398 445.79063416 C-29.45074045 449.81948118 -31.45589877 451.76999755 -37.23592091 451.80621052 C-43.08269685 450.98311661 -46.29497356 447.08152536 -50.26560974 443.00819397 C-51.51212086 441.77171266 -51.51212086 441.77171266 -52.78381401 440.51025194 C-55.07985073 438.22566992 -57.35953149 435.92611283 -59.63315141 433.61925995 C-62.09141319 431.13278203 -64.56989718 428.66660536 -67.04594421 426.19786072 C-71.88968549 421.36211763 -76.71470979 416.5081038 -81.53387951 411.64788682 C-87.14452661 405.99108456 -92.77452037 400.35370427 -98.40567232 394.71732574 C-108.44902643 384.66353272 -118.47629121 374.59384859 -128.49389648 364.5144043 C-138.22041317 354.72790082 -147.95564843 344.95019654 -157.7019043 335.18334961 C-158.60296317 334.28038024 -158.60296317 334.28038024 -159.52222525 333.35916907 C-161.93663468 330.93969442 -164.35108294 328.52025853 -166.76558819 326.10087949 C-177.72797588 315.11603996 -188.68362099 304.12447654 -199.63769531 293.13134766 C-200.1947583 292.57233746 -200.7518213 292.01332726 -201.32576498 291.43737736 C-208.28166185 284.45702892 -215.23445362 277.47361429 -222.18174934 270.48470497 C-224.12013976 268.53486132 -226.05966687 266.58615968 -228.00022888 264.63847733 C-230.63801758 261.99005442 -233.27268756 259.33856984 -235.90647888 256.68617249 C-236.68408064 255.90670873 -237.46168239 255.12724498 -238.26284784 254.32416111 C-238.9635512 253.61714981 -239.66425457 252.9101385 -240.38619137 252.18170261 C-241.299559 251.2632128 -241.299559 251.2632128 -242.2313785 250.32616764 C-244.82612044 247.48808629 -245.17719553 244.78364534 -245.09353828 240.96448231 C-243.42638321 232.91973523 -232.55989574 225.8629802 -226.68444252 220.40715599 C-223.41429714 217.36902529 -220.15775099 214.31638717 -216.90115356 211.26374817 C-216.20877696 210.61498581 -215.51640036 209.96622344 -214.80304265 209.29780161 C-205.07434226 200.16695002 -195.47687907 190.89841361 -185.87765694 181.63184834 C-178.08567106 174.11748585 -170.25184681 166.65892594 -162.30175781 159.31176758 C-122.28356918 125.93229334 -122.28356918 125.93229334 -102.12639427 80.4703207 C-101.81103327 71.69938173 -102.75866085 63.10862136 -104.40840054 54.50155354 C-106.47048183 43.70983983 -104.14117965 34.1932291 -98.95410156 24.53369141 C-98.60452393 23.8645874 -98.25494629 23.1954834 -97.89477539 22.50610352 C-88.93898403 5.86933082 -74.96403701 -4.77903808 -57.09863281 -10.31396484 C-37.70306252 -15.02588305 -16.30495961 -12.08080142 0 0 Z M-76.64160156 21.78369141 C-85.30543819 32.03783074 -88.83876174 43.26922008 -88.73925781 56.58837891 C-88.73784286 57.3123587 -88.73642792 58.0363385 -88.73497009 58.78225708 C-88.72941232 61.07444547 -88.71686789 63.36653298 -88.70410156 65.65869141 C-88.6990811 67.22118999 -88.69451915 68.78369011 -88.69042969 70.34619141 C-88.67945676 74.15872975 -88.66222166 77.97119353 -88.64160156 81.78369141 C-82.9565171 77.06449867 -77.75276387 71.99591311 -72.56738281 66.73681641 C-70.83118752 64.98798661 -69.09485538 63.23929266 -67.35839844 61.49072266 C-64.64414848 58.75157132 -61.9315288 56.01084236 -59.22143555 53.26757812 C-56.59111304 50.60712565 -53.95466667 47.9528657 -51.31738281 45.29931641 C-50.50690994 44.47538391 -49.69643707 43.65145142 -48.86140442 42.80255127 C-48.10349106 42.04125916 -47.3455777 41.27996704 -46.56469727 40.49560547 C-45.90186234 39.82531311 -45.2390274 39.15502075 -44.55610657 38.4644165 C-41.39058484 35.68543614 -39.5762877 34.72734605 -35.32470703 34.98364258 C-31.50959109 35.81236689 -28.28048967 37.00736695 -24.71191406 38.58447266 C-24.07728241 38.8621196 -23.44265076 39.13976654 -22.78878784 39.42582703 C-20.77773406 40.3079004 -18.77219353 41.20177965 -16.76660156 42.09619141 C-15.42970932 42.68487146 -14.09247199 43.2727685 -12.75488281 43.85986328 C-8.0804066 45.91550295 -3.40995212 47.9792688 1.23828125 50.09375 C2.04362305 50.45936035 2.84896484 50.8249707 3.67871094 51.20166016 C4.35434082 51.51256592 5.0299707 51.82347168 5.72607422 52.14379883 C7.37652684 52.9053486 7.37652684 52.9053486 9.35839844 52.78369141 C10.35258435 42.09619282 5.81556575 32.04626318 -0.64160156 23.78369141 C-1.08117187 23.17009766 -1.52074219 22.55650391 -1.97363281 21.92431641 C-8.81100109 13.01800384 -19.8512989 7.81594427 -30.51660156 5.03369141 C-48.92793045 3.5607851 -63.75650985 8.20561997 -76.64160156 21.78369141 Z M-62.70410156 75.34619141 C-63.31988697 75.89080772 -63.93567238 76.43542404 -64.57011795 76.99654388 C-81.36000497 92.07975698 -90.92808504 106.31632907 -92.19628906 129.25634766 C-92.53781442 137.15478499 -92.40467669 145.01228884 -92.07910156 152.90869141 C-92.04075825 153.88416553 -92.00241493 154.85963966 -91.9629097 155.86467361 C-91.80953683 187.04582713 -91.80953683 187.04582713 -77.94238281 213.50634766 C-71.32290711 219.56056476 -63.88675086 222.16424977 -54.87988281 221.99462891 C-45.95755734 221.15378148 -38.87589971 217.50767029 -32.91894531 210.86181641 C-26.19371777 202.3354837 -24.53784574 194.03645929 -24.48046875 183.32299805 C-24.47550385 182.61306198 -24.47053894 181.90312592 -24.46542358 181.17167664 C-24.45093372 178.84572346 -24.44402365 176.51983837 -24.43847656 174.19384766 C-24.43564919 173.39384275 -24.43282181 172.59383785 -24.42990875 171.76959038 C-24.41497285 167.53934276 -24.40570694 163.30912877 -24.40136719 159.07885742 C-24.39587801 154.72685593 -24.37182464 150.37516655 -24.34339523 146.02326298 C-24.32471198 142.65936903 -24.31956033 139.29554963 -24.31803131 135.9316082 C-24.31501919 134.32774581 -24.30703971 132.72388427 -24.29384613 131.12007332 C-24.05367949 119.58795735 -24.05367949 119.58795735 -27.64160156 108.78369141 C-30.95437467 105.6286694 -33.66055417 104.51540159 -38.14160156 104.22119141 C-43.14686561 104.44908707 -45.26933527 106.16467392 -48.64160156 109.78369141 C-50.94426058 113.3087072 -50.89263274 116.3546207 -50.89697266 120.50830078 C-50.90059311 121.17545609 -50.90421356 121.84261139 -50.90794373 122.52998352 C-50.9148214 123.97426489 -50.91734622 125.41857215 -50.91599655 126.86286926 C-50.91502969 129.14960256 -50.92799094 131.43586792 -50.94497681 133.72253418 C-50.99120813 140.22221286 -51.0158631 146.72184217 -51.02246094 153.22167969 C-51.02747404 157.20113161 -51.05170949 161.18009243 -51.08778763 165.15937805 C-51.09758724 166.67439323 -51.09991664 168.18947595 -51.09461594 169.70451355 C-51.08754903 171.82323785 -51.10481531 173.94049631 -51.12744141 176.05908203 C-51.13029144 177.26391235 -51.13314148 178.46874268 -51.13607788 179.71008301 C-51.74278119 183.39886841 -52.66028888 184.58724566 -55.64160156 186.78369141 C-59.49894338 187.33474024 -61.63656198 187.52213121 -64.82800293 185.17726135 C-67.25080102 181.97967585 -67.14876325 179.97736976 -67.15917969 175.98657227 C-67.16618896 175.31115387 -67.17319824 174.63573547 -67.18041992 173.93984985 C-67.19800728 171.70899162 -67.1863668 169.47940617 -67.17285156 167.24853516 C-67.1755485 165.68876402 -67.1794326 164.12899453 -67.18444824 162.56922913 C-67.19034609 159.29655994 -67.18177978 156.02432737 -67.16308594 152.75170898 C-67.14042794 148.58466005 -67.15333267 144.41864922 -67.17737579 140.25163937 C-67.19193994 137.02651889 -67.18717744 133.8016378 -67.17686462 130.57650948 C-67.17421959 129.04212887 -67.17738768 127.50772563 -67.18678284 125.97337151 C-67.23569574 115.72968068 -66.25032685 107.0295621 -61.01660156 97.97119141 C-52.98232923 90.57120373 -45.16315046 88.297678 -34.44628906 88.50634766 C-27.18937316 89.03534255 -21.53761549 92.05944605 -16.21191406 96.95166016 C-9.5809507 104.68778408 -8.52581527 113.37681252 -8.49633789 123.25683594 C-8.49297928 123.96849411 -8.48962067 124.68015228 -8.48616028 125.41337585 C-8.476724 127.74777004 -8.47471054 130.08209187 -8.47363281 132.41650391 C-8.47041396 134.05687488 -8.46704943 135.69724557 -8.46354675 137.33761597 C-8.45757289 140.77212183 -8.45570494 144.2066026 -8.45629883 147.64111328 C-8.45640008 152.00824689 -8.44277872 156.37521656 -8.42552662 160.74231148 C-8.41431809 164.13128372 -8.41238235 167.52021752 -8.41290855 170.90920639 C-8.41174054 172.51729774 -8.40738632 174.12539048 -8.39957619 175.73346329 C-8.329384 191.6847916 -8.7839587 207.25252449 -19.37207031 220.09228516 C-20.846523 221.8708254 -20.846523 221.8708254 -21.64160156 224.78369141 C-23.45019531 225.79150391 -23.45019531 225.79150391 -25.64160156 226.78369141 C-27.00510476 227.72869362 -28.35874779 228.68802495 -29.70410156 229.65869141 C-40.4239629 236.89371333 -52.91660653 239.28179769 -65.63378906 237.32275391 C-77.11701777 234.78749562 -88.28766168 229.15001704 -95.32519531 219.46728516 C-101.51368884 209.6058204 -104.70167326 200.2465069 -104.84692383 188.58496094 C-104.85682343 187.89158127 -104.86672302 187.1982016 -104.87692261 186.48381042 C-104.90829482 184.21140863 -104.93319803 181.938986 -104.95800781 179.66650391 C-104.97859836 178.08323652 -104.99959536 176.49997438 -105.02098083 174.91671753 C-105.07598465 170.76412212 -105.12548892 166.61147889 -105.17382812 162.45880127 C-105.22420225 158.21549256 -105.27980499 153.97225267 -105.33496094 149.72900391 C-105.44227693 141.41395805 -105.54378005 133.09885435 -105.64160156 124.78369141 C-112.00973127 130.03616803 -117.80561165 135.81299846 -123.62573242 141.65429688 C-124.72013208 142.74897903 -125.81475283 143.84344019 -126.90957642 144.93769836 C-129.8637897 147.89162614 -132.81492155 150.84861482 -135.76548839 153.80618429 C-138.8559832 156.90295372 -141.94933261 159.99686909 -145.04237366 163.09109497 C-150.89132662 168.94314917 -156.73772698 174.79774658 -162.5832029 180.6532737 C-169.24147209 187.3227416 -175.9025997 193.98935155 -182.56396282 200.65572906 C-196.25968048 214.36188375 -209.9518243 228.07160354 -223.64160156 241.78369141 C-222.29921109 244.7699528 -220.81849657 246.85602088 -218.50629234 249.16509628 C-217.85788206 249.81748866 -217.20947179 250.46988103 -216.54141271 251.14204288 C-215.82741296 251.85021694 -215.11341321 252.55839101 -214.3777771 253.2880249 C-213.62061106 254.04689979 -212.86344503 254.80577467 -212.08333457 255.58764577 C-209.53766586 258.13661628 -206.98490055 260.67835934 -204.43212891 263.22021484 C-202.60876751 265.04301227 -200.78584605 266.86624986 -198.96333313 268.68989563 C-195.03511743 272.61916016 -191.1032557 276.54474545 -187.16889572 280.46785736 C-181.48047502 286.14002582 -175.79758323 291.81770713 -170.11602683 297.49675027 C-160.89799055 306.71040902 -151.67549653 315.91959234 -142.45019531 325.12597656 C-133.48854316 334.06927143 -124.52899343 343.01466391 -115.57226562 351.96289062 C-115.02019689 352.51443391 -114.46812816 353.0659772 -113.89933006 353.63423392 C-111.12978377 356.40117015 -108.36027878 359.16814772 -105.59079432 361.93514585 C-82.614131 384.89107486 -59.63023212 407.83974661 -36.64160156 430.78369141 C-31.48839201 426.47141591 -26.66812884 421.95066148 -21.92835999 417.19070435 C-21.18325603 416.44645482 -20.43815208 415.70220529 -19.67046922 414.93540275 C-17.18849685 412.45507006 -14.71010214 409.97119392 -12.23168945 407.48730469 C-10.44764325 405.70297626 -8.66337652 403.91886831 -6.87890625 402.13496399 C-3.04479173 398.30107677 0.78779068 394.46566834 4.61897087 390.62884903 C10.15812851 385.08154363 15.70006507 379.53702125 21.24267072 373.99316119 C30.23641192 364.99723461 39.22792047 355.99907993 48.21801758 346.99951172 C56.94796151 338.26038036 65.67896138 329.52230617 74.41137695 320.78564453 C74.95018409 320.24657467 75.48899122 319.70750481 76.04412585 319.15209951 C78.74733107 316.44758919 81.450557 313.74309957 84.15379322 311.03862023 C106.55853892 288.62351792 128.95962059 266.20475729 151.35839844 243.78369141 C150.01631483 240.79876078 148.53604106 238.71154945 146.22588253 236.40228653 C145.57808895 235.74989415 144.93029537 235.09750178 144.26287168 234.42533994 C143.54955405 233.71716587 142.83623642 233.0089918 142.1013031 232.27935791 C140.96661239 231.14104558 140.96661239 231.14104558 139.80899864 229.97973704 C137.26567252 227.43076211 134.71524239 224.88901598 132.16479492 222.34716797 C130.34306286 220.52436335 128.52176375 218.70112594 126.7008667 216.87748718 C122.26391419 212.43549291 117.82163909 207.99885847 113.37754231 203.56401309 C108.20625393 198.40310402 103.04019192 193.23697666 97.87433434 188.07063255 C88.66097459 178.85677216 79.44279172 169.64775224 70.22192383 160.44140625 C61.26581738 151.4993975 52.3132311 142.55388386 43.36450195 133.60449219 C42.53724696 132.77717726 42.53724696 132.77717726 41.69327974 131.93314889 C41.14274712 131.38257592 40.5922145 130.83200295 40.02499908 130.26474595 C29.84660368 120.08566159 19.66492567 109.90986634 9.48170714 99.73560722 C5.87513035 96.13205228 2.2695359 92.52751618 -1.3357563 88.92267609 C-6.18162704 84.07755674 -11.03027507 79.23523118 -15.8808136 74.39478493 C-17.6663672 72.61216518 -19.45106218 70.82868494 -21.23486137 69.04430962 C-23.65810142 66.62058289 -26.08436762 64.19992846 -28.51148987 61.78009033 C-29.5848124 60.7044449 -29.5848124 60.7044449 -30.67981821 59.60706925 C-31.32500405 58.96510787 -31.97018988 58.32314648 -32.6349268 57.66173172 C-33.19544902 57.10191392 -33.75597124 56.54209612 -34.33347899 55.96531415 C-38.69234915 52.02796132 -58.45788666 71.59049213 -62.70410156 75.34619141 Z M3.35839844 69.78369141 C7.42739884 74.67496991 11.70168262 79.25524144 16.23007202 83.7217865 C17.23006507 84.71459439 17.23006507 84.71459439 18.25026 85.72745901 C20.4680083 87.92822354 22.68936001 90.12531495 24.91064453 92.32250977 C26.50784521 93.90632181 28.1047617 95.49042049 29.70141602 97.07478333 C33.13138962 100.47793346 36.56259081 103.87983952 39.99451828 107.28101921 C45.41952588 112.65901278 50.83691156 118.04463872 56.25234985 123.43226624 C57.1671683 124.34234544 58.08198674 125.25242465 59.02452695 126.19008201 C61.36639183 128.51992339 63.70819628 130.84982549 66.04997829 133.17975016 C70.37450947 137.48233999 74.69933929 141.78462916 79.02490234 146.08618164 C79.50598893 146.56460424 79.98707551 147.04302684 80.48274048 147.53594709 C88.29062117 155.29981016 96.11106244 163.05091097 103.93568759 170.7978937 C111.97821986 178.76129284 120.00514831 186.74013935 128.01908171 194.73233706 C132.51563956 199.21559801 137.01917615 203.69131795 141.54005051 208.15006828 C145.78767007 212.33958228 150.01634885 216.54730356 154.23112488 220.76984978 C155.78184997 222.3167723 157.33946456 223.85682322 158.90433121 225.38943863 C161.03802217 227.48115336 163.14568085 229.59605527 165.24862671 231.71861267 C165.87486761 232.32086873 166.50110852 232.92312478 167.14632642 233.54363102 C170.05896358 236.53581974 171.74577422 238.66726998 171.97484684 242.92849064 C171.29849704 247.1583082 170.58843796 248.5515666 167.60499573 251.53198242 C166.36359172 252.80212692 166.36359172 252.80212692 165.09710884 254.09793091 C164.19333441 254.98423187 163.28955997 255.87053284 162.35839844 256.78369141 C160.97678951 258.19326358 159.5951907 259.60284575 158.21402156 261.01284885 C155.63361516 263.63228307 153.0210195 266.21930801 150.4128418 268.81103516 C149.23888202 269.98142998 148.06516256 271.15206589 146.8916626 272.32292175 C144.38534128 274.8227446 141.87751682 277.32104572 139.36851311 279.81817627 C135.40338844 283.7648816 131.4427237 287.7160426 127.48280334 291.66796875 C116.22936519 302.89734331 104.96989103 314.12065461 93.70629883 325.33984375 C87.46963597 331.55199881 81.23654101 337.76771155 75.00728709 343.9872961 C71.06827085 347.91976081 67.1247864 351.84767238 63.17796409 355.77230167 C60.73399092 358.20458812 58.29416759 360.64100346 55.85552979 363.07863808 C54.72042664 364.21158517 53.58359133 365.34279971 52.4449482 366.47218895 C50.89719513 368.00784197 49.35563677 369.54945135 47.8155365 371.09277344 C46.94967895 371.95548859 46.08382139 372.81820374 45.19172573 373.70706177 C43.13778977 375.57189313 43.13778977 375.57189313 43.35839844 377.78369141 C50.06103039 380.69722764 56.76409226 383.60977244 63.46767807 386.5211134 C66.58168422 387.87354949 69.6955511 389.22630417 72.80908203 390.57983398 C76.40327928 392.14212132 79.9979801 393.70324497 83.59277344 395.26416016 C84.69014832 395.74145065 85.78752319 396.21874115 86.91815186 396.710495 C90.06207781 398.07488671 93.20951199 399.43079198 96.35839844 400.78369141 C97.46638794 401.26391754 98.57437744 401.74414368 99.71594238 402.23892212 C100.7893689 402.69753632 101.86279541 403.15615051 102.96875 403.62866211 C104.41438324 404.25004814 104.41438324 404.25004814 105.88922119 404.88398743 C108.39018631 405.95486896 108.39018631 405.95486896 111.35839844 405.78369141 C120.78211117 384.00805167 130.19027198 362.2257379 139.58673096 340.43832397 C146.00695874 325.55186326 152.43021143 310.66671694 158.85839844 295.78369141 C163.82941305 284.27425115 168.79896914 272.76418474 173.76464844 261.25244141 C174.2236705 260.18831024 174.68269257 259.12417908 175.15562439 258.02780151 C177.48208883 252.6342357 179.8082432 247.24053636 182.1340332 241.84667969 C186.65977813 231.35169315 191.1897462 220.85856742 195.72949219 210.36962891 C197.01105333 207.40717416 198.29252259 204.44467969 199.57397461 201.48217773 C200.37192897 199.63835313 201.17040826 197.7947556 201.96948242 195.95141602 C206.88596318 184.60983285 211.69494741 173.23177419 216.35839844 161.78369141 C198.80190847 153.85640874 181.19054828 146.07480782 163.50422668 138.44126892 C155.13396168 134.82645617 146.77791996 131.17898824 138.42089844 127.53369141 C136.76156049 126.81004827 135.10221802 126.0864155 133.44287109 125.36279297 C130.08799719 123.89970563 126.73319008 122.43646526 123.37841797 120.97314453 C118.44366669 118.82074665 113.50852185 116.66925243 108.57324219 114.51806641 C107.77090652 114.16833771 106.96857086 113.81860901 106.141922 113.45828247 C102.09281951 111.69336668 98.04364341 109.92861997 93.99438477 108.1640625 C85.81737734 104.6005262 77.64152632 101.03437437 69.46777344 97.46337891 C53.955885 90.68774932 38.43809538 83.9254484 22.89074707 77.23150635 C21.3378946 76.56243542 19.78555909 75.89216329 18.23376465 75.22064209 C16.10363679 74.29931274 13.9715686 73.38263825 11.83886719 72.46728516 C10.63125732 71.94706787 9.42364746 71.42685059 8.17944336 70.89086914 C5.55319618 69.66191114 5.55319618 69.66191114 3.35839844 69.78369141 Z " fill="#000000" transform="translate(260.6416015625,36.21630859375)"/>
</svg>
