<?xml version="1.0" encoding="UTF-8"?>
<svg version="1.1" xmlns="http://www.w3.org/2000/svg" width="512" height="512">
<path d="M0 0 C11.36336238 8.29218336 17.96025072 19.92172812 20.3125 33.6875 C21.57586313 47.33182182 17.80008413 59.34445887 12.3125 71.6875 C13.20445068 71.67178955 14.09640137 71.6560791 15.01538086 71.63989258 C18.36456259 71.58838008 21.71331566 71.55096553 25.06274414 71.52270508 C26.50486955 71.50773492 27.94695036 71.48735132 29.38891602 71.46118164 C39.74488602 71.2781125 49.17616799 71.54365528 57.7421875 78.09765625 C62.81771511 83.23631231 65.36755136 89.86993585 65.51782227 96.99707031 C65.53776749 97.83763977 65.55771271 98.67820923 65.57826233 99.54425049 C65.60333107 100.89133087 65.60333107 100.89133087 65.62890625 102.265625 C65.64968735 103.1921991 65.67046844 104.11877319 65.69187927 105.07342529 C65.75716961 108.02804272 65.81616431 110.98274768 65.875 113.9375 C65.91820473 115.94271732 65.96181965 117.94792585 66.00585938 119.953125 C66.11282999 124.86449404 66.21415518 129.77595097 66.3125 134.6875 C67.34133301 135.12094727 68.37016602 135.55439453 69.43017578 136.00097656 C73.2682813 137.61990521 77.10288866 139.24698103 80.93652344 140.87646484 C82.59216416 141.57886767 84.24872941 142.27909561 85.90625 142.97705078 C88.29677261 143.98411589 90.68379544 144.99911018 93.0703125 146.015625 C93.80492706 146.32308655 94.53954163 146.6305481 95.29641724 146.94732666 C103.56749063 150.49079795 110.42706849 154.86659332 114.125 163.4375 C119.29019212 179.41355936 108.22567774 196.3517414 101.97241211 210.65820312 C96.78034718 222.54386039 91.72357179 234.48501677 86.6875 246.4375 C86.11003525 247.80785904 86.11003525 247.80785904 85.52090454 249.2059021 C85.14315887 250.10241486 84.76541321 250.99892761 84.3762207 251.92260742 C84.01951168 252.76709725 83.66280266 253.61158709 83.29528427 254.48166752 C82.52998823 256.30273174 81.7705957 258.1262979 81.01940346 259.95322514 C78.98957097 264.85970464 76.85872689 269.66406002 74.48060608 274.41229248 C66.49482358 290.84182482 64.76469706 304.92358649 65.12696385 323.04327965 C65.1838557 326.55779046 65.17266913 330.0721603 65.16880798 333.58703613 C65.17060844 340.20838217 65.22425019 346.82807 65.3010754 353.44893122 C65.43741841 365.33181285 65.48661257 377.21520431 65.51051325 389.09879255 C65.52100004 393.25289068 65.55572134 397.40583749 65.61167634 401.55956459 C65.65056832 404.74728321 65.66464748 407.93515786 65.68383789 411.12304688 C65.70614975 412.25249222 65.72846161 413.38193756 65.75144958 414.54560852 C65.76644575 422.56996341 64.49236943 429.65529444 59.41796875 436.08984375 C58.78503906 436.59644531 58.15210938 437.10304688 57.5 437.625 C56.56220703 438.41197266 56.56220703 438.41197266 55.60546875 439.21484375 C48.97508474 443.47319941 43.74103494 444.10979872 36.00390625 443.98046875 C34.55382423 443.97410149 34.55382423 443.97410149 33.07444763 443.96760559 C30.00767351 443.95090522 26.9415732 443.91326899 23.875 443.875 C21.78711891 443.859942 19.69922745 443.84625555 17.61132812 443.83398438 C12.51146185 443.80102999 7.4120949 443.74930751 2.3125 443.6875 C2.12734329 444.25919418 1.94218658 444.83088837 1.75141907 445.41990662 C-0.42391119 452.05396316 -2.9755411 458.46601481 -5.71118164 464.88989258 C-6.49828133 466.74594723 -7.26963703 468.60807016 -8.04101562 470.47070312 C-12.12954668 480.09351955 -15.90056435 488.51907663 -25.88671875 492.82421875 C-35.16623426 495.68443204 -42.27695833 493.77136064 -50.91796875 490.15625 C-52.22822777 489.6197155 -52.22822777 489.6197155 -53.56495667 489.07234192 C-56.27771438 487.9562022 -58.98368365 486.82511444 -61.6875 485.6875 C-62.49932739 485.34592865 -63.31115479 485.0043573 -64.14758301 484.6524353 C-68.96788623 482.61610186 -73.77549855 480.55103213 -78.57888794 478.47515869 C-83.07866135 476.53083546 -87.58224374 474.59537778 -92.0859375 472.66015625 C-93.02182205 472.25790833 -93.9577066 471.8556604 -94.92195129 471.44122314 C-107.9298312 465.85731097 -120.97936452 460.37156138 -134.02709961 454.8815918 C-134.94143768 454.49652969 -135.85577576 454.11146759 -136.79782104 453.71473694 C-138.49134153 453.00162063 -140.18518052 452.28925998 -141.87942505 451.5778656 C-143.02881058 451.09387047 -143.02881058 451.09387047 -144.20141602 450.60009766 C-144.90741125 450.30746662 -145.61340649 450.01483559 -146.34079552 449.71333694 C-148.6875 448.6875 -148.6875 448.6875 -150.64446259 447.64212513 C-157.23385476 444.23935872 -163.17182323 444.14024394 -170.48413086 444.22094727 C-172.36395409 444.21748795 -172.36395409 444.21748795 -174.28175354 444.21395874 C-176.99122097 444.21133688 -179.69957673 444.21576585 -182.40888786 444.23221016 C-186.70130454 444.25749142 -190.9933267 444.25100081 -195.28578186 444.23973083 C-205.94469673 444.21661181 -216.60349442 444.23491507 -227.26239014 444.26123047 C-235.55448762 444.2812252 -243.84626574 444.28967202 -252.1383639 444.26429409 C-256.39681714 444.25254346 -260.65435649 444.26398085 -264.91271389 444.2935468 C-268.19567043 444.31002701 -271.47851098 444.29406428 -274.76147461 444.28344727 C-275.92697845 444.29835709 -277.0924823 444.31326691 -278.29330444 444.32862854 C-286.5419028 444.2569864 -293.34392286 442.60814211 -299.59989834 436.96131229 C-306.09427096 430.20628514 -307.13497517 422.47353207 -306.98046875 413.5 C-306.97622391 412.55688965 -306.97197906 411.6137793 -306.96760559 410.64208984 C-306.9509357 407.65692482 -306.91330575 404.67245782 -306.875 401.6875 C-306.85993804 399.65235356 -306.84625229 397.61719645 -306.83398438 395.58203125 C-306.80107055 390.6169223 -306.74936999 385.65232913 -306.6875 380.6875 C-307.26467773 380.49980545 -307.84185547 380.3121109 -308.43652344 380.11872864 C-315.33190125 377.85261671 -321.99677772 375.1870983 -328.6875 372.375 C-329.8115625 371.91416016 -330.935625 371.45332031 -332.09375 370.97851562 C-342.53669326 366.59272345 -350.99712008 362.62181684 -355.9375 352 C-357.94521836 343.13257726 -356.61866617 336.77727363 -353.16796875 328.50390625 C-352.80943314 327.62701645 -352.45089752 326.75012665 -352.08149719 325.84666443 C-348.63544979 317.45873438 -345.07250984 309.12006766 -341.47515869 300.79611206 C-339.53083546 296.29633865 -337.59537778 291.79275626 -335.66015625 287.2890625 C-335.25790833 286.35317795 -334.8556604 285.4172934 -334.44122314 284.45304871 C-328.85731097 271.4451688 -323.37156138 258.39563548 -317.8815918 245.34790039 C-317.49652969 244.43356232 -317.11146759 243.51922424 -316.71473694 242.57717896 C-316.00162063 240.88365847 -315.28925998 239.18981948 -314.5778656 237.49557495 C-314.25520218 236.72931793 -313.93253876 235.96306091 -313.60009766 235.17358398 C-313.30742571 234.46766617 -313.01475376 233.76174835 -312.71321297 233.03443909 C-311.6875 230.6875 -311.6875 230.6875 -310.64324093 228.72842598 C-307.25638112 222.1590585 -307.1280446 216.24105839 -307.18920898 208.95092773 C-307.18369019 207.70425323 -307.17817139 206.45757874 -307.17248535 205.17312622 C-307.16319064 202.47839441 -307.16096923 199.78479518 -307.17107964 197.09017754 C-307.18674026 192.82349193 -307.17289448 188.55720113 -307.15504456 184.2905426 C-307.12432406 176.00423173 -307.12271975 167.71804371 -307.12469482 159.4316864 C-307.1260907 148.88087853 -307.11564214 138.33016497 -307.0761171 127.77942616 C-307.06124234 123.54405294 -307.06140877 119.30903423 -307.07359493 115.07365596 C-307.07943642 111.81397144 -307.06625853 108.55434683 -307.05639648 105.29467773 C-307.06411575 104.13133408 -307.07183502 102.96799042 -307.07978821 101.76939392 C-307.02293195 92.65375117 -305.32243977 84.40415085 -298.6875 77.6875 C-291.08472251 72.33790929 -284.29429248 71.54500406 -275.23046875 71.37109375 C-274.32750565 71.35031265 -273.42454254 71.32953156 -272.49421692 71.30812073 C-269.62121903 71.2429472 -266.74813286 71.18389045 -263.875 71.125 C-261.92251706 71.08178414 -259.97004292 71.03816888 -258.01757812 70.99414062 C-253.24097497 70.88729893 -248.46428336 70.78594143 -243.6875 70.6875 C-243.31463867 69.7903125 -242.94177734 68.893125 -242.55761719 67.96875 C-241.15895796 64.60540789 -239.75653224 61.2436468 -238.35302734 57.88232422 C-237.74882607 56.43385236 -237.14561487 54.98496707 -236.54345703 53.53564453 C-226.03422137 28.24725159 -226.03422137 28.24725159 -216.4140625 23.5859375 C-204.59103167 19.26831191 -194.27025294 23.7774602 -183.3515625 28.609375 C-182.05379631 29.17482277 -182.05379631 29.17482277 -180.72981262 29.75169373 C-178.88020282 30.55798091 -177.03163811 31.36666921 -175.18405151 32.17758179 C-170.27791635 34.33019128 -165.36344285 36.4635924 -160.44921875 38.59765625 C-159.45795486 39.02851028 -158.46669098 39.45936432 -157.44538879 39.90327454 C-148.04210339 43.98305499 -138.59388883 47.95028994 -129.125 51.875 C-128.38261078 52.1828241 -127.64022156 52.49064819 -126.87533569 52.80780029 C-124.0399068 53.98315182 -121.20430001 55.15807014 -118.36811829 56.331604 C-111.85494263 59.02779686 -105.3586826 61.7636549 -98.87084961 64.52026367 C-96.16132938 65.66778237 -93.48062115 66.75645962 -90.6875 67.6875 C-90.54417236 67.09646484 -90.40084473 66.50542969 -90.25317383 65.89648438 C-88.11483506 57.5640417 -85.23389115 49.56077384 -82.23657227 41.50830078 C-81.3778476 39.19517053 -80.53335124 36.87716765 -79.68945312 34.55859375 C-73.22437656 16.99137318 -66.16486611 4.07614522 -48.9609375 -4.9375 C-32.6995433 -11.76806176 -14.69221472 -9.41808636 0 0 Z M-53.125 18.8125 C-60.40159812 28.06394516 -63.56956858 40.53318139 -67.61889648 51.49145508 C-68.51300509 53.91018113 -69.41153258 56.3272342 -70.31054688 58.74414062 C-70.88046515 60.2811548 -71.4501362 61.81826067 -72.01953125 63.35546875 C-72.28820511 64.07824509 -72.55687897 64.80102142 -72.83369446 65.54570007 C-74.12836746 68.53997436 -74.12836746 68.53997436 -74.6875 71.6875 C-71.3875 71.6875 -68.0875 71.6875 -64.6875 71.6875 C-62.22965733 65.98010573 -59.88124507 60.24974324 -57.71484375 54.42578125 C-57.37001953 53.50176514 -57.02519531 52.57774902 -56.66992188 51.62573242 C-55.9836426 49.77806979 -55.30374457 47.92802196 -54.63085938 46.07543945 C-52.21324975 39.57720879 -49.90320584 33.49192398 -43.625 29.875 C-42.95339844 29.47667969 -42.28179687 29.07835938 -41.58984375 28.66796875 C-35.74407205 25.65505562 -28.7234481 25.79129316 -22.5 27.6875 C-16.74943266 30.14869616 -12.98806903 35.08636194 -10.25 40.5625 C-8.19690426 51.96858747 -11.79610161 61.05564368 -15.6875 71.6875 C-12.3875 71.6875 -9.0875 71.6875 -5.6875 71.6875 C-4.15465895 67.78292263 -2.66764345 63.86232481 -1.1875 59.9375 C-0.75824219 58.84566406 -0.32898438 57.75382812 0.11328125 56.62890625 C3.99299815 46.22141171 4.998591 36.74723179 0.69921875 26.29296875 C-3.70942951 18.00967752 -10.56820751 12.01496101 -19.515625 9.08984375 C-32.50200102 6.68409424 -43.74708138 9.20713186 -53.125 18.8125 Z M-212.6875 41.6875 C-214.33882687 44.25354522 -214.33882687 44.25354522 -215.546875 47.2734375 C-216.02253906 48.36914062 -216.49820313 49.46484375 -216.98828125 50.59375 C-217.46652344 51.7384375 -217.94476563 52.883125 -218.4375 54.0625 C-218.93121094 55.19945313 -219.42492187 56.33640625 -219.93359375 57.5078125 C-221.99037802 62.30885414 -223.65765668 66.53828338 -224.6875 71.6875 C-193.0075 71.6875 -161.3275 71.6875 -128.6875 71.6875 C-131.6672979 69.45265158 -133.57774618 68.14939875 -136.85986328 66.77734375 C-137.67741592 66.43233322 -138.49496857 66.08732269 -139.33729553 65.7318573 C-140.21856613 65.36659439 -141.09983673 65.00133148 -142.0078125 64.625 C-143.39370827 64.04260307 -143.39370827 64.04260307 -144.80760193 63.44844055 C-147.80700428 62.18939284 -150.80961895 60.93822552 -153.8125 59.6875 C-155.86470076 58.82884413 -157.91670245 57.96971234 -159.96850586 57.11010742 C-163.02684883 55.82889922 -166.08535796 54.54810813 -169.14482117 53.26957703 C-174.87904516 50.87192275 -180.60188866 48.45068895 -186.30859375 45.98828125 C-187.50919434 45.47201172 -188.70979492 44.95574219 -189.94677734 44.42382812 C-192.09132162 43.49943919 -194.23371492 42.570038 -196.37353516 41.63476562 C-197.30343262 41.23580078 -198.23333008 40.83683594 -199.19140625 40.42578125 C-199.97330322 40.08587158 -200.7552002 39.74596191 -201.56079102 39.39575195 C-206.20670506 37.84853618 -208.96877095 38.85621192 -212.6875 41.6875 Z M-37.6875 46.6875 C-38.9327822 49.11390963 -38.9327822 49.11390963 -39.828125 51.78515625 C-40.17617188 52.75130859 -40.52421875 53.71746094 -40.8828125 54.71289062 C-41.23085938 55.71513672 -41.57890625 56.71738281 -41.9375 57.75 C-42.48277344 59.25916992 -42.48277344 59.25916992 -43.0390625 60.79882812 C-45.02942507 66.11641474 -45.02942507 66.11641474 -45.6875 71.6875 C-41.7275 71.6875 -37.7675 71.6875 -33.6875 71.6875 C-32.34121634 68.48406612 -31.01028788 65.27562326 -29.6875 62.0625 C-29.3059375 61.15886719 -28.924375 60.25523438 -28.53125 59.32421875 C-25.82280964 52.74153736 -25.82280964 52.74153736 -25.6875 45.6875 C-26.75095052 43.70720318 -26.75095052 43.70720318 -28.6875 42.6875 C-33.26222209 41.86639603 -34.76818533 43.29836489 -37.6875 46.6875 Z M-288.6875 92.6875 C-289.97988754 95.27227508 -289.81769612 97.13063113 -289.82451439 100.02650928 C-289.82958893 101.16647824 -289.83466347 102.3064472 -289.83989179 103.48096067 C-289.84038955 104.74406448 -289.84088731 106.00716829 -289.84140015 107.30854797 C-289.84541348 108.65552163 -289.84985148 110.00249409 -289.8546797 111.34946507 C-289.86666535 115.06360708 -289.87229824 118.77773608 -289.87686086 122.49189365 C-289.88280934 126.49268187 -289.89442098 130.49345447 -289.90515137 134.49423218 C-289.92969144 144.16201973 -289.94430423 153.82981245 -289.95721143 163.49762157 C-289.96092199 166.22687304 -289.96489533 168.95612401 -289.9689641 171.68537498 C-289.9941976 188.62331782 -290.0162569 205.56126144 -290.02869225 222.49921894 C-290.03162208 226.42387711 -290.03458372 230.34853525 -290.03759766 234.27319336 C-290.03834371 235.24868183 -290.03908976 236.22417031 -290.03985842 237.22921904 C-290.05251826 253.03965946 -290.08574892 268.84998757 -290.12739949 284.66037545 C-290.16978364 300.88179169 -290.19338314 317.10315038 -290.19861281 333.32462186 C-290.20203077 342.43679571 -290.21383129 351.54879402 -290.24671555 360.66091347 C-290.27466883 368.41951108 -290.28573622 376.17789717 -290.27452008 383.93654124 C-290.26932137 387.8967397 -290.27229802 391.85649489 -290.29698563 395.81662941 C-290.31939078 399.44080653 -290.31880756 403.06421976 -290.29978175 406.68840947 C-290.29563513 408.62324591 -290.3161919 410.55808633 -290.33756864 412.49280912 C-290.29349307 417.27807966 -290.21212685 420.69167025 -287.96323586 424.96044254 C-282.68747707 427.74196674 -277.54266818 427.3744957 -271.66772461 427.32241821 C-270.31402761 427.32817993 -268.96033843 427.3361214 -267.60666561 427.34605443 C-263.88768646 427.36694481 -260.16934808 427.35660318 -256.4503665 427.34112334 C-252.43937029 427.32982251 -248.4284852 427.3472662 -244.41751099 427.36102295 C-236.56038822 427.38327353 -228.70350406 427.37844612 -220.84637189 427.36395974 C-214.46159737 427.35267464 -208.07688979 427.35113344 -201.69210815 427.35657883 C-200.78391073 427.35734499 -199.87571331 427.35811116 -198.93999475 427.35890054 C-197.09509506 427.36049914 -195.25019538 427.36212021 -193.40529573 427.3637635 C-176.09957745 427.37802633 -158.79399153 427.36161991 -141.48829496 427.33476166 C-126.63438295 427.31242239 -111.7806663 427.31630237 -96.92675781 427.33935547 C-79.68360584 427.36610406 -62.44056992 427.37665298 -45.19740009 427.36129415 C-43.3592307 427.35970138 -41.52106128 427.35812953 -39.68289185 427.35657883 C-38.77844218 427.35580745 -37.87399251 427.35503607 -36.94213527 427.35424132 C-30.5639241 427.34992149 -24.18578645 427.35721696 -17.80758667 427.36897659 C-10.03621372 427.38298969 -2.26509333 427.37922685 5.50625062 427.35257287 C9.47251809 427.33941848 13.43836426 427.33430951 17.40462875 427.35081863 C21.03428247 427.36569833 24.6631237 427.35756414 28.29270351 427.33093087 C30.23034388 427.32268372 32.16804049 427.33904165 34.10562229 427.35621703 C38.89467783 427.30189142 42.31668231 427.2131083 46.58697414 424.95918083 C49.36347105 419.69480785 48.99600624 414.56826922 48.94068909 408.70568848 C48.94573463 407.35611735 48.95296352 406.00655292 48.96218723 404.65700388 C48.98113608 400.94941407 48.96886154 397.24248281 48.9514643 393.53490949 C48.93810711 389.53619209 48.95352142 385.53757212 48.96528625 381.53886414 C48.98367961 373.70579559 48.9751393 365.87297626 48.95719803 358.03991544 C48.94318079 351.6746891 48.93927734 345.30953046 48.9426403 338.94429016 C48.94311775 338.0388681 48.94359519 337.13344604 48.9440871 336.20058694 C48.94511341 334.36132425 48.94616877 332.52206158 48.94725286 330.68279892 C48.95582335 314.41364547 48.93913362 298.14461244 48.90942383 281.87548828 C48.88058558 266.08344463 48.87350243 250.29157448 48.88891602 234.49951172 C48.90567142 217.30910344 48.90971913 200.11877756 48.89220566 182.92836714 C48.89036124 181.09581471 48.88852651 179.26326228 48.88670158 177.43070984 C48.88578949 176.52902428 48.8848774 175.62733872 48.88393768 174.69832936 C48.87832817 168.33966904 48.88164332 161.9810489 48.88824654 155.62239075 C48.89597255 147.87483177 48.88925364 140.12744367 48.8640715 132.37991917 C48.85155934 128.42585936 48.84545054 124.47206582 48.85661316 120.51799583 C48.86663554 116.8995413 48.85823944 113.28161838 48.83503198 109.66322869 C48.82740934 107.73156062 48.83944547 105.79984602 48.85213572 103.86820459 C48.83556419 102.14929144 48.83556419 102.14929144 48.81865788 100.39565277 C48.81746639 99.40691335 48.81627491 98.41817393 48.81504732 97.39947271 C48.1704727 93.92105642 46.72295186 92.22734892 44.3125 89.6875 C41.08646455 88.07448227 37.56539962 88.56696401 34.0234375 88.58984375 C33.20501373 88.5912587 32.38658997 88.59267365 31.54336548 88.59413147 C28.92470675 88.5997371 26.30613296 88.61229052 23.6875 88.625 C21.91406373 88.63001428 20.14062613 88.63457731 18.3671875 88.63867188 C14.01559218 88.64970836 9.6640605 88.66697675 5.3125 88.6875 C4.9378511 89.74413345 4.9378511 89.74413345 4.55563354 90.82211304 C2.18426757 97.50401375 -0.19755805 104.18207334 -2.59080696 110.85616112 C-3.82044364 114.28639729 -5.04618044 117.71791813 -6.26269531 121.15283203 C-7.43981835 124.47604578 -8.6275877 127.79528338 -9.8224144 131.11217117 C-10.49081668 132.97604383 -11.14852121 134.84374189 -11.80593872 136.71151733 C-15.98506307 148.25879978 -20.8497661 158.84004729 -32.0234375 164.96875 C-41.54994944 169.39968579 -51.15272768 170.12929057 -61.17578125 166.71484375 C-71.1901306 162.6187724 -76.88039502 157.17933873 -81.78125 147.53515625 C-87.07793102 134.36701871 -82.67954382 122.37093485 -77.88555908 109.94593811 C-76.35070874 105.7715072 -74.95223685 101.55714686 -73.55517578 97.33496094 C-73.27855606 96.50189423 -73.00193634 95.66882751 -72.7169342 94.81051636 C-72.03948051 92.76983453 -71.36335584 90.72871158 -70.6875 88.6875 C-98.37286374 88.59411666 -126.05820392 88.52355017 -153.74369335 88.48025131 C-166.598144 88.45961379 -179.45249687 88.43147034 -192.30688477 88.38574219 C-203.50893652 88.345911 -214.71091747 88.32007585 -225.91303807 88.31114602 C-231.8461539 88.30592501 -237.77906716 88.29362878 -243.71211815 88.26457977 C-249.29430575 88.23746957 -254.87620695 88.22904619 -260.45845413 88.23506927 C-262.5091552 88.23396708 -264.55986565 88.22598722 -266.61050987 88.2106781 C-269.40733496 88.19081914 -272.20307425 88.19554596 -274.99992371 88.20648193 C-276.22123538 88.18900488 -276.22123538 88.18900488 -277.46722001 88.17117476 C-282.50407553 88.22452429 -285.17164943 89.04036623 -288.6875 92.6875 Z M-52.6875 88.6875 C-54.69013079 93.75665918 -56.66681173 98.83504216 -58.62158203 103.92285156 C-59.34400248 105.79657789 -60.0717114 107.66827225 -60.80419922 109.53808594 C-61.9278868 112.41507593 -63.02833716 115.30011518 -64.125 118.1875 C-64.65577148 119.52868896 -64.65577148 119.52868896 -65.19726562 120.89697266 C-67.57985116 127.26036322 -69.28892506 134.0226282 -67.00317383 140.6809082 C-64.31325234 145.88272626 -60.37345563 149.2031561 -55.3125 152 C-49.19752417 153.60154129 -44.14238001 153.25999174 -38.68327332 150.0995636 C-31.85940167 145.27148985 -29.05956942 137.39587054 -26.41796875 129.80078125 C-26.05149734 128.78074509 -25.68502594 127.76070892 -25.30744934 126.70976257 C-24.54073534 124.56815988 -23.78054529 122.42421131 -23.02661133 120.27807617 C-21.87317888 116.99481614 -20.70115352 113.71868135 -19.52539062 110.44335938 C-18.78017045 108.3545515 -18.03599315 106.26537121 -17.29296875 104.17578125 C-16.94509811 103.19861649 -16.59722748 102.22145172 -16.23881531 101.2146759 C-15.91790421 100.29989975 -15.5969931 99.3851236 -15.26635742 98.44262695 C-14.98467209 97.6429097 -14.70298676 96.84319244 -14.4127655 96.01924133 C-13.65821341 93.59334309 -13.14258604 91.18541207 -12.6875 88.6875 C-15.9875 88.6875 -19.2875 88.6875 -22.6875 88.6875 C-23.09589111 89.79262939 -23.50428223 90.89775879 -23.92504883 92.03637695 C-25.44311089 96.13763881 -26.97198495 100.23479886 -28.50415039 104.33081055 C-29.16563571 106.10379879 -29.82418786 107.87788425 -30.47973633 109.65307617 C-31.42279463 112.20525894 -32.37634827 114.75330338 -33.33203125 117.30078125 C-33.6227803 118.09462723 -33.91352936 118.88847321 -34.21308899 119.70637512 C-34.49315292 120.44691635 -34.77321686 121.18745758 -35.06176758 121.95043945 C-35.30381424 122.60107864 -35.5458609 123.25171783 -35.79524231 123.92207336 C-36.82223098 125.95407955 -37.95566575 127.21820348 -39.6875 128.6875 C-41.625 129.05078125 -41.625 129.05078125 -43.6875 129 C-44.7084375 128.99419922 -44.7084375 128.99419922 -45.75 128.98828125 C-47.6875 128.6875 -47.6875 128.6875 -50.6875 126.6875 C-52.09836102 121.27636969 -51.42891619 117.85708825 -49.37890625 112.73046875 C-49.13333481 112.10143143 -48.88776337 111.4723941 -48.63475037 110.82429504 C-47.85485781 108.83485844 -47.05344388 106.85502727 -46.25 104.875 C-45.45470334 102.87558238 -44.66394859 100.87445543 -43.8759613 98.87214661 C-43.16299454 97.06678644 -42.4383518 95.26605033 -41.71313477 93.46557617 C-40.57205351 90.86835638 -40.57205351 90.86835638 -40.6875 88.6875 C-44.6475 88.6875 -48.6075 88.6875 -52.6875 88.6875 Z M65.3125 153.6875 C65.3125 185.6975 65.3125 217.7075 65.3125 250.6875 C67.87182016 247.27507312 69.26243221 244.78666907 70.8515625 240.921875 C71.34180908 239.74036865 71.83205566 238.5588623 72.3371582 237.34155273 C72.87078782 236.04027659 73.40422962 234.73892341 73.9375 233.4375 C75.08699639 230.65116216 76.24035415 227.86643305 77.39453125 225.08203125 C77.70039658 224.34287979 78.0062619 223.60372833 78.32139587 222.84217834 C80.80778844 216.85316649 83.36966834 210.89860677 85.94921875 204.94921875 C87.12184615 202.23371333 88.29382124 199.51792701 89.46575928 196.80212402 C90.2362416 195.02278976 91.01035187 193.2450219 91.78814697 191.46887207 C92.88553471 188.96124662 93.96937714 186.44814495 95.05078125 183.93359375 C95.3814006 183.18792648 95.71201996 182.44225922 96.05265808 181.67399597 C97.79197365 177.59185465 99.14276486 174.18506241 98.3125 169.6875 C95.1546498 165.67149482 91.87854497 163.72614483 87.20703125 161.79296875 C86.05912109 161.31279297 84.91121094 160.83261719 83.72851562 160.33789062 C82.53935547 159.85513672 81.35019531 159.37238281 80.125 158.875 C78.92423828 158.37291016 77.72347656 157.87082031 76.48632812 157.35351562 C71.07176216 154.78124535 71.07176216 154.78124535 65.3125 153.6875 Z M-307.6875 264.6875 C-308.36443254 266.29521478 -309.04135636 267.90293324 -309.71824646 269.51066589 C-310.33567465 270.97696043 -310.9532441 272.44319548 -311.57093811 273.90937805 C-313.3297537 278.0847963 -315.0859301 282.26129529 -316.83764648 286.43969727 C-320.24963541 294.57109131 -323.67664589 302.69404844 -327.19644165 310.77947998 C-328.69683985 314.2284509 -330.18513518 317.68258428 -331.67260742 321.137146 C-332.38791978 322.78890484 -333.10923379 324.43807819 -333.83666992 326.08453369 C-334.85569477 328.39248059 -335.8536138 330.70854996 -336.84765625 333.02734375 C-337.15204117 333.70187088 -337.45642609 334.37639801 -337.77003479 335.07136536 C-339.70309225 339.65729454 -340.13546164 342.90297767 -338.6875 347.6875 C-335.45562245 351.04395911 -331.81203386 352.70885141 -327.546875 354.484375 C-326.39445312 354.96777344 -325.24203125 355.45117188 -324.0546875 355.94921875 C-322.86101562 356.44035156 -321.66734375 356.93148437 -320.4375 357.4375 C-319.22835937 357.94410156 -318.01921875 358.45070313 -316.7734375 358.97265625 C-311.88291839 361.44334917 -311.88291839 361.44334917 -306.6875 362.6875 C-306.6875 330.3475 -306.6875 298.0075 -306.6875 264.6875 C-307.0175 264.6875 -307.3475 264.6875 -307.6875 264.6875 Z M-114.6875 443.6875 C-112.32365952 445.26339366 -110.33904403 446.35802147 -107.76806641 447.46826172 C-106.98000107 447.81016037 -106.19193573 448.15205902 -105.37998962 448.50431824 C-104.52498367 448.87156509 -103.66997772 449.23881195 -102.7890625 449.6171875 C-101.89429703 450.00413284 -100.99953156 450.39107819 -100.07765198 450.78974915 C-97.1575116 452.05102829 -94.2352812 453.3073535 -91.3125 454.5625 C-90.32263092 454.98802155 -89.33276184 455.41354309 -88.31289673 455.85195923 C-82.35153784 458.4135774 -76.38684119 460.96730997 -70.42059326 463.51751709 C-67.90666147 464.59368133 -65.39455897 465.67396229 -62.88330078 466.75634766 C-59.49086159 468.21789644 -56.09357063 469.66733458 -52.69085693 471.10479736 C-50.91826728 471.85664802 -49.15070683 472.62032096 -47.38330078 473.38427734 C-39.76077566 476.78040854 -39.76077566 476.78040854 -31.6875 476.6875 C-25.8875118 471.80283619 -23.66997151 464.23742003 -20.875 457.375 C-20.37291016 456.17037109 -19.87082031 454.96574219 -19.35351562 453.72460938 C-16.91222243 448.85696893 -16.91222243 448.85696893 -15.6875 443.6875 C-48.3575 443.6875 -81.0275 443.6875 -114.6875 443.6875 Z " fill="#000000" transform="translate(376.6875,13.3125)"/>
</svg>
