<?xml version="1.0" encoding="UTF-8" standalone="no"?>
<!DOCTYPE svg PUBLIC "-//W3C//DTD SVG 1.1//EN" "http://www.w3.org/Graphics/SVG/1.1/DTD/svg11.dtd">
<svg width="100%" height="100%" viewBox="0 0 800 800" version="1.1" xmlns="http://www.w3.org/2000/svg" xmlns:xlink="http://www.w3.org/1999/xlink" xml:space="preserve" xmlns:serif="http://www.serif.com/" style="fill-rule:evenodd;clip-rule:evenodd;stroke-linejoin:round;stroke-miterlimit:2;">
    <g transform="matrix(33.333333,0,0,33.333333,0,0)">
        <path d="M1.344,2.125L21.656,2.125L22.438,2.906L22.438,11.505C21.954,11.142 21.43,10.836 20.875,10.593L20.875,3.688L2.125,3.688L2.125,17.75L9.938,17.75C9.938,19.44 10.486,21.086 11.5,22.438L5.25,22.438L5.25,20.875L9.938,20.875L9.938,19.312L1.344,19.312L0.562,18.532L0.562,2.905L1.344,2.124L1.344,2.125ZM17.75,11.5C14.321,11.5 11.5,14.321 11.5,17.75C11.5,21.179 14.321,24 17.75,24C21.179,24 24,21.179 24,17.75C24,14.321 21.179,11.5 17.75,11.5ZM17.75,22.438C15.178,22.438 13.061,20.322 13.061,17.75C13.061,15.177 15.178,13.061 17.75,13.061C20.322,13.061 22.438,15.177 22.438,17.75C22.438,20.322 20.322,22.438 17.75,22.438ZM20.353,19.306L18.2,17.153L20.353,15L21,15.646L19.494,17.153L21,18.659L20.353,19.306ZM15,17.246L16.506,18.753L15,20.259L15.647,20.906L17.8,18.753L15.647,16.6L15,17.246Z"/>
    </g>
</svg>
